<svg xmlns="http://www.w3.org/2000/svg" width="409" height="300" viewBox="0 0 409 300">
<g>
<path d="M 267.20 183.05 C263.86,184.69 255.39,184.80 191.00,184.05 L 141.50 183.47 L 202.50 183.22 C248.89,183.03 264.09,182.67 265.97,181.72 C267.33,181.03 269.47,178.95 270.72,177.09 C273.36,173.17 273.68,173.77 271.45,178.46 C270.60,180.25 268.69,182.32 267.20,183.05 Z" fill="rgb(133,54,174)"/>
<path d="M 267.20 183.05 C268.69,182.32 270.60,180.25 271.45,178.46 C273.54,174.05 273.39,173.26 271.17,176.43 C273.21,173.16 273.21,170.39 271.41,162.75 C270.81,160.20 270.99,160.00 273.88,160.00 C276.89,160.00 277.49,159.25 277.03,156.05 C276.91,155.25 278.23,156.10 279.95,157.95 C282.73,160.92 283.15,162.17 283.67,168.93 C284.37,177.99 282.80,181.95 275.83,188.70 C271.54,192.85 271.40,192.90 261.23,193.94 C247.88,195.30 161.00,195.34 161.00,193.99 C161.00,193.44 162.98,193.00 165.39,193.00 C168.48,193.00 169.97,192.53 170.39,191.42 C170.41,191.36 170.44,191.31 170.46,191.25 C170.75,190.48 170.94,189.99 170.84,189.58 C170.67,188.85 169.61,188.33 166.75,186.86 C163.56,185.22 159.88,184.51 152.00,184.01 C150.01,183.88 151.40,183.75 155.46,183.63 L 191.00 184.05 C255.39,184.80 263.86,184.69 267.20,183.05 ZM 173.01 183.34 C181.17,183.26 191.22,183.19 202.50,183.16 C241.03,183.04 257.99,182.78 263.74,182.16 C257.97,182.79 240.95,183.06 202.50,183.22 Z" fill="rgb(143,39,193)"/>
<path d="M 283.64 168.54 C283.14,162.12 282.68,160.86 279.95,157.95 C278.53,156.42 277.38,155.57 277.09,155.78 C276.40,154.10 274.81,152.47 272.78,151.62 C270.98,150.86 267.92,149.49 266.00,148.59 L 262.50 146.94 L 266.39 147.43 C271.08,148.02 276.91,151.70 280.40,156.28 C282.50,159.03 283.08,161.17 283.61,168.10 C283.62,168.25 283.63,168.40 283.64,168.54 ZM 276.62 159.38 C276.12,159.85 275.25,160.00 273.88,160.00 C272.11,160.00 271.36,160.08 271.18,160.72 C271.35,160.08 272.08,160.00 273.78,160.00 C274.88,160.00 275.95,159.75 276.62,159.38 ZM 283.07 178.41 C282.05,181.94 279.85,184.81 275.83,188.70 C279.81,184.85 282.03,181.90 283.07,178.41 Z" fill="rgb(146,76,176)"/>
<path d="M 276.62 159.38 C275.95,159.75 274.88,160.00 273.78,160.00 C272.08,160.00 271.35,160.08 271.18,160.72 L 271.18 160.72 C271.07,161.13 271.18,161.76 271.41,162.75 C271.72,164.04 271.97,165.19 272.17,166.23 C271.51,164.19 270.43,162.33 269.04,161.06 L 266.25 158.50 L 229.12 158.86 C202.38,159.12 192.00,158.91 192.00,158.11 C192.00,157.50 193.12,157.00 194.50,157.00 C195.88,157.00 197.00,156.60 197.00,156.11 C197.00,155.63 198.99,154.93 201.42,154.56 C209.61,153.34 209.54,149.09 201.32,147.92 C198.67,147.54 212.96,147.29 233.07,147.37 L 263.64 147.48 L 266.00 148.59 C267.92,149.49 270.98,150.86 272.78,151.62 C274.81,152.47 276.40,154.10 277.09,155.78 C277.03,155.82 277.01,155.91 277.03,156.05 C277.28,157.80 277.22,158.81 276.62,159.38 ZM 173.01 183.34 L 141.50 183.47 L 155.46 183.63 C151.40,183.75 150.01,183.88 152.00,184.01 C159.88,184.51 163.56,185.22 166.75,186.86 C169.61,188.33 170.67,188.85 170.84,189.58 C170.94,189.99 170.75,190.48 170.46,191.25 C170.44,191.31 170.41,191.36 170.39,191.42 C169.97,192.53 168.48,193.00 165.39,193.00 C162.98,193.00 161.00,193.44 161.00,193.99 C161.00,194.44 170.90,194.74 184.53,194.88 C158.07,194.84 134.63,194.56 132.84,194.02 C124.67,191.56 116.45,182.28 115.39,174.33 C114.92,170.82 114.99,170.68 116.19,172.68 C117.23,174.40 117.88,174.65 119.30,173.85 C120.30,173.30 122.33,172.69 123.84,172.50 C126.11,172.21 126.89,172.76 128.53,175.83 C129.25,177.16 129.74,178.25 130.48,179.13 C133.74,183.05 141.74,183.01 194.21,182.79 C196.65,182.78 199.19,182.77 201.83,182.76 L 257.90 182.53 C249.08,182.89 232.20,183.07 202.50,183.16 C191.22,183.19 181.17,183.26 173.01,183.34 ZM 266.79 147.49 L 269.65 147.50 L 273.74 150.21 C277.11,152.44 279.32,154.39 280.80,156.83 C280.67,156.64 280.54,156.46 280.40,156.28 C277.01,151.84 271.41,148.23 266.79,147.49 ZM 271.36 176.12 C271.30,176.22 271.24,176.33 271.17,176.43 C271.16,176.44 271.15,176.46 271.14,176.47 C271.22,176.35 271.29,176.24 271.36,176.12 Z" fill="rgb(174,43,189)"/>
<path d="M 182.68 62.90 C185.29,63.51 179.36,63.78 164.00,63.75 L 141.50 63.70 L 160.18 62.85 C171.06,62.36 180.46,62.38 182.68,62.90 Z" fill="rgb(220,95,132)"/>
<path d="M 263.59 147.45 L 263.64 147.48 L 233.07 147.37 C212.96,147.29 198.67,147.54 201.32,147.92 C209.54,149.09 209.61,153.34 201.42,154.56 C198.99,154.93 197.00,155.63 197.00,156.11 C197.00,156.60 195.88,157.00 194.50,157.00 C193.12,157.00 192.00,157.50 192.00,158.11 C192.00,158.66 196.87,158.93 208.52,158.96 L 175.17 159.19 L 174.00 157.00 C172.06,153.37 173.51,150.92 183.44,141.05 L 192.94 131.60 L 195.56 134.05 C200.02,138.21 200.47,139.87 198.06,143.14 C196.47,145.28 196.25,146.15 197.21,146.50 C197.92,146.76 214.51,147.09 234.07,147.24 ZM 128.27 175.35 C126.80,172.70 125.99,172.22 123.84,172.50 C122.33,172.69 120.30,173.30 119.30,173.85 C117.88,174.65 117.23,174.40 116.19,172.68 C115.07,170.82 114.94,170.82 115.31,173.68 C114.45,168.70 115.04,163.47 117.26,158.80 C119.38,154.35 140.11,131.66 138.70,135.34 C138.17,136.71 138.53,136.94 140.58,136.57 C142.27,136.26 143.67,136.76 144.78,138.06 C145.70,139.13 147.02,140.00 147.72,140.00 C150.15,140.00 148.96,141.58 139.43,151.02 C134.16,156.23 129.21,161.72 128.43,163.20 C126.65,166.57 126.64,171.56 128.27,175.35 ZM 124.88 189.58 C121.69,187.22 119.20,184.10 117.51,180.60 C119.31,184.00 122.04,187.27 125.18,189.80 C125.08,189.72 124.98,189.65 124.88,189.58 ZM 243.80 158.72 L 266.25 158.50 L 266.32 158.56 ZM 132.93 180.88 C131.81,180.41 131.07,179.84 130.48,179.13 C129.99,178.55 129.61,177.88 129.21,177.11 C129.71,177.95 130.14,178.67 130.69,179.29 C131.25,179.92 131.93,180.45 132.93,180.88 ZM 266.79 147.49 C266.77,147.49 266.75,147.48 266.72,147.48 L 269.65 147.50 Z" fill="rgb(208,43,169)"/>
<path d="M 231.79 54.20 C230.98,55.40 229.69,56.60 228.91,56.86 C227.72,57.25 227.71,57.07 228.84,55.71 C229.57,54.82 229.88,53.62 229.53,53.04 C229.15,52.44 229.80,52.00 231.06,52.00 C233.08,52.00 233.14,52.16 231.79,54.20 Z" fill="rgb(230,160,127)"/>
<path d="M 266.00 27.00 C266.00,27.64 256.00,28.00 238.00,28.00 C220.00,28.00 210.00,27.64 210.00,27.00 C210.00,26.45 212.48,26.00 215.50,26.00 C219.90,26.00 221.00,25.68 221.00,24.38 C221.00,23.17 221.56,22.94 223.25,23.46 C227.42,24.74 241.41,25.87 253.75,25.94 C261.21,25.98 266.00,26.39 266.00,27.00 ZM 227.37 59.35 L 223.25 64.00 L 212.12 64.00 C200.11,64.00 197.30,62.63 207.00,61.50 C210.30,61.12 213.00,60.43 213.00,59.97 C213.00,59.52 215.36,59.39 218.25,59.68 C222.74,60.14 223.78,59.91 225.43,58.09 C228.34,54.86 226.32,53.68 218.69,54.17 C213.70,54.49 212.34,54.29 212.72,53.29 C213.08,52.36 215.96,52.00 223.16,52.00 C223.59,52.00 224.00,52.00 224.39,52.00 C226.95,52.00 228.82,51.99 230.08,52.12 C229.50,52.29 229.27,52.63 229.53,53.04 C229.88,53.62 229.57,54.82 228.84,55.71 C227.71,57.07 227.72,57.25 228.91,56.86 C229.42,56.69 230.15,56.12 230.81,55.42 C230.01,56.41 228.85,57.70 227.37,59.35 ZM 262.37 77.25 C247.28,92.06 241.48,96.97 247.45,89.88 C248.89,88.16 250.74,85.46 251.56,83.88 C252.38,82.30 253.58,81.00 254.22,81.00 C254.87,81.00 256.77,79.69 258.45,78.08 C260.13,76.48 266.45,70.40 272.50,64.58 C278.55,58.76 283.89,54.00 284.37,54.00 C285.65,54.00 280.28,59.67 262.37,77.25 ZM 242.50 83.62 C241.40,83.96 239.38,85.19 238.00,86.36 C233.62,90.10 236.07,87.52 255.75,67.61 C266.34,56.91 275.00,48.60 275.00,49.15 C275.00,49.70 271.85,53.36 268.00,57.28 C264.15,61.20 261.00,64.80 261.00,65.29 C261.00,65.77 258.47,68.72 255.38,71.84 C252.29,74.95 248.58,78.74 247.13,80.26 C245.68,81.77 243.60,83.29 242.50,83.62 ZM 224.65 18.53 C221.99,20.40 220.63,20.41 221.34,18.56 C221.64,17.78 221.35,16.91 220.69,16.64 C220.04,16.38 227.15,16.22 236.50,16.30 C252.71,16.43 252.88,16.45 240.13,16.75 C230.39,16.98 226.18,17.46 224.65,18.53 Z" fill="rgb(236,139,80)"/>
<path d="M 182.68 62.90 C180.46,62.38 171.06,62.36 160.18,62.85 L 142.93 63.63 C139.35,63.34 137.89,62.76 135.50,61.64 C126.64,57.49 122.00,49.88 122.00,39.50 C122.00,32.02 123.81,27.25 128.41,22.66 C134.08,16.99 138.76,16.00 160.01,16.00 C170.27,16.00 178.89,16.22 179.16,16.49 C179.43,16.77 178.95,19.21 178.08,21.93 C177.03,25.21 175.83,27.06 174.50,27.43 C173.40,27.73 165.61,27.98 157.18,27.99 C147.60,27.99 141.07,28.43 139.73,29.15 C131.84,33.37 131.16,43.97 138.43,49.51 C141.59,51.92 142.18,52.00 157.76,52.00 C175.38,52.00 177.42,52.32 176.12,54.85 C175.66,55.76 174.98,57.74 174.62,59.25 C174.01,61.81 174.19,62.01 177.23,62.12 C179.03,62.18 181.85,62.58 183.50,63.00 C183.88,63.10 183.71,63.19 183.09,63.28 C183.44,63.17 183.30,63.05 182.68,62.90 ZM 147.61 142.53 C149.30,140.49 149.07,140.00 147.72,140.00 C147.02,140.00 145.70,139.13 144.78,138.06 C143.67,136.76 142.27,136.26 140.58,136.57 C138.53,136.94 138.17,136.71 138.70,135.34 C139.08,134.35 137.86,135.27 135.82,137.23 C139.06,133.88 142.81,130.06 147.13,125.66 L 174.50 97.82 L 178.87 101.87 L 183.24 105.92 L 156.41 133.46 C153.36,136.59 150.40,139.64 147.61,142.53 ZM 219.75 120.43 C209.93,130.58 207.08,131.96 203.65,128.17 C200.50,124.69 201.63,122.13 210.18,113.38 C214.67,108.77 218.66,105.00 219.02,105.00 C219.39,105.00 220.73,105.90 222.00,107.00 C223.27,108.10 225.36,109.00 226.65,109.00 C227.94,109.00 229.00,109.42 229.00,109.93 C229.00,110.44 224.84,115.16 219.75,120.43 ZM 143.93 63.70 L 164.00 63.75 C168.65,63.76 172.44,63.74 175.39,63.70 C172.12,63.79 168.06,63.85 163.50,63.87 C153.32,63.92 147.60,63.93 143.93,63.70 ZM 128.82 162.59 C130.28,160.54 134.73,155.67 139.43,151.02 C139.85,150.60 140.25,150.20 140.64,149.82 C134.67,156.09 130.29,160.82 128.82,162.59 ZM 124.88 189.58 C124.98,189.65 125.08,189.72 125.18,189.80 C127.30,191.51 129.62,192.89 131.95,193.73 C128.10,192.44 124.62,190.01 121.83,186.88 C122.76,187.86 123.78,188.77 124.88,189.58 ZM 128.10 145.35 C124.70,149.12 121.28,153.14 119.17,155.93 C121.11,153.17 123.96,149.82 128.10,145.35 ZM 116.64 160.23 C115.88,162.15 115.38,164.16 115.12,166.18 C115.29,164.13 115.70,162.28 116.64,160.23 ZM 128.27 175.35 C127.36,173.24 126.96,170.77 127.09,168.41 C127.01,170.80 127.43,173.37 128.33,175.45 C128.31,175.41 128.29,175.38 128.27,175.35 Z" fill="rgb(242,54,121)"/>
<path d="M 179.16 16.49 C179.02,16.36 176.71,16.23 173.11,16.14 C179.94,16.14 187.96,16.17 197.43,16.21 C207.50,16.24 216.32,16.30 223.39,16.38 C221.45,16.44 220.43,16.53 220.69,16.64 C221.35,16.91 221.64,17.78 221.34,18.56 C220.89,19.74 221.27,20.16 222.30,19.83 C219.32,21.77 220.70,23.19 226.77,24.19 C225.27,23.96 224.07,23.71 223.25,23.46 C221.56,22.94 221.00,23.17 221.00,24.38 C221.00,25.68 219.90,26.00 215.50,26.00 C212.48,26.00 210.00,26.45 210.00,27.00 C210.00,27.45 214.96,27.76 224.17,27.91 C217.86,27.93 211.10,27.94 204.06,27.93 C161.42,27.88 144.63,28.11 140.67,28.84 C143.09,28.31 149.04,27.99 157.18,27.99 C165.61,27.98 173.40,27.73 174.50,27.43 C175.83,27.06 177.03,25.21 178.08,21.93 C178.95,19.21 179.43,16.77 179.16,16.49 ZM 213.86 58.02 C214.70,58.73 215.77,59.25 216.91,59.57 C214.67,59.44 213.00,59.59 213.00,59.97 C213.00,60.43 210.30,61.12 207.00,61.50 C198.42,62.50 199.63,63.69 208.33,63.95 L 182.00 63.96 C168.86,63.97 159.88,63.97 153.59,63.90 C156.32,63.90 159.58,63.89 163.50,63.87 C168.06,63.85 172.12,63.79 175.39,63.70 C179.87,63.62 182.41,63.49 183.09,63.28 C183.71,63.19 183.88,63.10 183.50,63.00 C181.85,62.58 179.03,62.18 177.23,62.12 C174.19,62.01 174.01,61.81 174.62,59.25 C174.98,57.74 175.66,55.76 176.12,54.85 C177.02,53.08 176.31,52.39 169.82,52.14 L 187.48 52.24 L 214.69 52.39 C213.48,52.60 212.87,52.89 212.72,53.29 C212.43,54.05 213.14,54.34 215.69,54.30 C214.47,54.47 213.48,54.71 213.00,55.04 C211.72,55.89 211.85,56.33 213.86,58.02 ZM 149.66 140.42 C151.83,138.17 154.09,135.83 156.41,133.46 L 183.24 105.92 L 178.87 101.87 L 174.64 97.95 C180.90,91.61 185.72,86.73 187.70,84.72 C196.10,76.21 198.70,74.92 202.51,77.41 C207.92,80.96 206.94,82.32 177.72,111.89 C165.92,123.82 156.74,133.16 149.66,140.42 ZM 242.50 83.62 C243.60,83.29 245.68,81.77 247.13,80.26 C247.76,79.59 248.83,78.49 250.10,77.20 C247.79,79.61 247.09,80.61 247.27,81.40 C247.40,81.95 247.96,82.40 248.70,83.14 L 250.79 85.23 C249.85,86.74 248.53,88.59 247.45,89.88 C241.72,96.69 246.84,92.44 260.60,78.98 C256.45,83.18 251.94,87.72 247.26,92.44 C238.15,101.62 231.13,108.69 225.67,114.09 C227.70,111.81 229.00,110.21 229.00,109.93 C229.00,109.42 227.94,109.00 226.65,109.00 C225.36,109.00 223.27,108.10 222.00,107.00 C220.73,105.90 219.39,105.00 219.02,105.00 C218.85,105.00 217.81,105.89 216.28,107.34 C223.71,99.89 236.52,87.00 248.25,75.16 C250.20,73.19 252.11,71.28 253.95,69.44 C235.92,87.68 233.76,89.99 238.00,86.36 C239.38,85.19 241.40,83.96 242.50,83.62 ZM 224.65 18.53 C226.18,17.46 230.39,16.98 240.13,16.75 L 240.85 16.73 C242.05,16.81 241.84,16.88 240.00,16.96 C230.90,17.32 226.84,17.78 224.22,18.83 C224.36,18.73 224.50,18.63 224.65,18.53 ZM 253.01 25.93 C245.55,25.87 237.56,25.42 231.57,24.80 C235.62,25.20 240.83,25.50 247.25,25.70 C249.26,25.77 251.20,25.85 253.01,25.93 ZM 136.56 17.65 C133.10,18.65 130.84,20.22 128.41,22.66 C129.48,21.59 130.37,20.69 131.38,19.94 C132.70,18.94 134.21,18.20 136.56,17.65 ZM 227.37 59.35 C227.96,58.70 228.49,58.10 228.98,57.55 L 228.40 58.22 L 223.50 63.94 L 223.30 63.94 ZM 226.65 55.46 C226.85,56.10 226.43,56.97 225.43,58.09 C224.28,59.35 223.44,59.85 221.53,59.89 C223.13,59.65 224.55,59.04 225.44,58.06 C226.23,57.20 226.70,56.14 226.65,55.46 ZM 282.90 56.48 C284.39,54.77 284.80,54.04 284.40,54.00 C284.41,54.00 284.41,54.00 284.42,54.00 C284.92,54.00 285.15,54.20 284.92,54.44 C284.87,54.49 284.17,55.20 282.90,56.48 ZM 231.79 54.20 C232.35,53.34 232.67,52.82 232.70,52.50 L 233.31 52.50 L 231.44 54.68 C231.56,54.52 231.68,54.36 231.79,54.20 ZM 205.75 118.13 C201.35,123.25 201.16,125.42 203.65,128.17 C201.14,125.40 201.21,123.32 205.75,118.13 ZM 250.95 84.95 L 251.93 83.12 C252.54,82.00 253.52,81.07 254.16,81.00 C253.50,81.08 252.36,82.35 251.56,83.88 C251.40,84.20 251.19,84.56 250.95,84.95 ZM 221.46 54.06 C223.50,54.05 224.93,54.23 225.78,54.61 C224.85,54.31 223.24,54.12 221.46,54.06 ZM 139.73 29.15 C139.74,29.14 139.75,29.14 139.76,29.13 C136.33,31.00 134.25,34.03 133.59,37.31 C134.24,34.01 136.30,30.98 139.73,29.15 ZM 116.64 160.23 C115.70,162.28 115.29,164.13 115.12,166.18 C115.11,166.26 115.11,166.33 115.10,166.41 C115.26,164.11 115.69,162.08 116.84,159.75 C116.77,159.91 116.71,160.07 116.64,160.23 ZM 122.51 151.64 C121.18,153.23 120.08,154.65 119.17,155.93 C119.08,156.06 118.98,156.19 118.89,156.31 C119.85,154.92 121.03,153.39 122.51,151.64 ZM 203.65 128.17 C204.28,128.87 204.90,129.39 205.53,129.71 C204.86,129.45 204.30,128.88 203.65,128.17 ZM 265.22 27.29 C265.59,27.23 265.83,27.16 265.94,27.09 C265.98,27.11 266.00,27.13 266.00,27.16 C266.00,27.20 265.73,27.25 265.22,27.29 ZM 128.82 162.59 C128.96,162.42 129.12,162.23 129.31,162.01 C128.96,162.45 128.69,162.81 128.48,163.10 C128.57,162.96 128.68,162.79 128.82,162.59 ZM 253.66 73.57 C254.24,72.98 254.82,72.40 255.38,71.84 C257.89,69.31 260.03,66.89 260.75,65.81 C260.03,66.89 257.89,69.31 255.39,71.84 C254.77,72.46 254.20,73.04 253.66,73.57 ZM 275.00 49.16 L 275.00 49.16 C275.00,49.59 273.02,51.98 270.28,54.90 C273.00,52.00 274.98,49.61 275.00,49.16 ZM 137.48 62.51 C136.83,62.26 136.22,61.98 135.50,61.64 C136.22,61.98 136.85,62.26 137.48,62.51 Z" fill="rgb(247,98,93)"/>
<path d="M 266.00 27.00 C266.00,26.39 261.21,25.98 253.75,25.94 C253.51,25.94 253.26,25.93 253.01,25.93 C251.20,25.85 249.26,25.77 247.25,25.70 C240.83,25.50 235.62,25.20 231.57,24.80 C229.76,24.61 228.14,24.40 226.77,24.19 C220.70,23.19 219.32,21.77 222.30,19.83 C222.79,19.67 223.44,19.34 224.22,18.83 C226.84,17.78 230.90,17.32 240.00,16.96 C241.84,16.88 242.05,16.81 240.85,16.73 C252.87,16.45 252.40,16.43 236.50,16.30 C230.96,16.25 226.20,16.29 223.39,16.38 C216.32,16.30 207.50,16.24 197.43,16.21 C187.96,16.17 179.94,16.14 173.11,16.14 C171.75,16.11 170.21,16.08 168.53,16.05 C177.16,16.00 187.93,16.00 201.45,16.00 L 203.50 16.00 L 205.18 16.00 C262.44,16.00 271.21,16.00 277.04,20.14 C278.15,20.93 279.16,21.87 280.37,22.99 C287.54,29.60 289.82,40.23 286.21,50.23 C285.82,51.32 285.11,52.57 283.67,54.44 C281.96,55.74 277.47,59.80 272.50,64.58 C266.45,70.40 260.13,76.48 258.45,78.08 C256.77,79.69 254.87,81.00 254.22,81.00 C254.20,81.00 254.18,81.00 254.16,81.00 C253.52,81.07 252.54,82.00 251.93,83.12 L 250.95 84.95 C250.90,85.05 250.84,85.14 250.79,85.23 L 248.70 83.14 C247.96,82.40 247.40,81.95 247.27,81.40 C247.09,80.61 247.79,79.61 250.10,77.20 C251.19,76.08 252.43,74.82 253.66,73.57 C254.20,73.04 254.77,72.46 255.39,71.84 C257.89,69.31 260.03,66.89 260.75,65.81 C260.91,65.56 261.00,65.38 261.00,65.29 C261.00,64.80 264.15,61.20 268.00,57.28 C268.58,56.68 269.15,56.09 269.70,55.52 C269.82,55.39 269.95,55.25 270.08,55.12 C270.14,55.05 270.21,54.98 270.28,54.90 C273.00,52.00 274.97,49.63 275.00,49.16 L 275.00 49.16 L 275.00 49.15 C275.00,48.60 266.34,56.91 255.75,67.61 C255.13,68.24 254.53,68.85 253.95,69.44 C252.11,71.28 250.20,73.19 248.25,75.16 C247.86,75.56 247.46,75.96 247.07,76.35 C263.60,59.55 273.73,48.89 274.87,47.00 C278.36,41.24 277.28,35.39 271.78,30.25 L 269.38 28.01 L 245.30 27.98 C256.14,27.91 263.00,27.67 265.22,27.29 C265.73,27.25 266.00,27.20 266.00,27.16 C266.00,27.13 265.98,27.11 265.94,27.09 C265.98,27.06 266.00,27.03 266.00,27.00 ZM 213.86 58.02 C211.85,56.33 211.72,55.89 213.00,55.04 C213.48,54.71 214.47,54.47 215.69,54.30 C216.50,54.29 217.49,54.25 218.69,54.17 C219.71,54.10 220.63,54.07 221.46,54.06 C223.24,54.12 224.85,54.31 225.78,54.61 C226.26,54.83 226.55,55.11 226.65,55.46 C226.70,56.14 226.23,57.20 225.44,58.06 C224.55,59.04 223.13,59.65 221.53,59.89 C220.69,59.90 219.63,59.83 218.25,59.68 C217.79,59.64 217.34,59.60 216.91,59.57 C215.77,59.25 214.70,58.73 213.86,58.02 ZM 247.26 92.48 C238.08,101.73 231.02,108.83 225.53,114.24 C225.58,114.19 225.62,114.14 225.67,114.09 C231.13,108.69 238.15,101.62 247.26,92.44 C251.94,87.72 256.45,83.18 260.60,78.98 L 260.60 78.98 C260.75,78.83 260.90,78.69 261.06,78.54 C257.11,82.55 252.54,87.16 247.26,92.48 ZM 228.26 27.96 L 205.75 27.93 C212.18,27.94 218.37,27.93 224.17,27.91 C225.45,27.93 226.81,27.94 228.26,27.96 ZM 205.75 27.93 C161.71,27.88 144.56,28.11 140.62,28.85 C140.64,28.85 140.65,28.85 140.67,28.84 C144.63,28.11 161.42,27.88 204.06,27.93 C204.63,27.93 205.19,27.93 205.75,27.93 ZM 133.30 18.76 C132.58,19.11 131.96,19.50 131.38,19.94 C130.37,20.69 129.48,21.59 128.41,22.66 C129.44,21.63 130.30,20.75 131.26,20.01 C131.87,19.54 132.53,19.13 133.30,18.76 ZM 205.75 118.13 L 205.75 118.13 C201.92,122.51 201.27,124.68 202.68,126.91 C201.24,124.61 201.96,122.39 206.08,117.75 C205.97,117.88 205.86,118.01 205.75,118.13 ZM 216.20 107.41 C216.60,107.02 217.00,106.62 217.39,106.22 C217.01,106.61 216.64,106.98 216.28,107.34 Z" fill="rgb(249,137,55)"/>

</g>
</svg>